<svg width="512" height="512" viewBox="0 0 512 512" fill="none" xmlns="http://www.w3.org/2000/svg">
<circle cx="256" cy="256" r="256" fill="#00407A"/>
<path d="M242.867 364.805H259.469C299.052 364.805 330.693 360.247 354.391 351.133C358.557 358.294 360.641 365.716 360.641 373.398C360.641 379.128 358.753 383.359 354.977 386.094C351.201 388.698 343.518 390 331.93 390L176.07 390.195C174.378 385.768 173.531 381.602 173.531 377.695C173.531 375.091 174.182 373.203 175.484 372.031C176.917 370.729 179.195 370.078 182.32 370.078H196.773C197.685 351.849 198.141 305.365 198.141 230.625C198.141 190.651 197.62 161.615 196.578 143.516H176.07C174.378 139.089 173.531 134.987 173.531 131.211C173.531 128.477 174.182 126.523 175.484 125.352C176.917 124.049 179.195 123.398 182.32 123.398H266.891C268.583 127.305 269.43 131.081 269.43 134.727C269.43 137.982 268.779 140.26 267.477 141.562C266.174 142.865 263.831 143.516 260.445 143.516H242.867C241.956 161.615 241.5 191.432 241.5 232.969C241.5 306.146 241.956 350.091 242.867 364.805Z" fill="white"/>
</svg>
