<?xml version="1.0" encoding="UTF-8"?>
<!DOCTYPE svg PUBLIC "-//W3C//DTD SVG 1.1//EN" "http://www.w3.org/Graphics/SVG/1.1/DTD/svg11.dtd">
<!-- Creator: CorelDRAW X7 -->
<svg xmlns="http://www.w3.org/2000/svg" xml:space="preserve" width="45.8893mm" height="22.1827mm" version="1.1" style="shape-rendering:geometricPrecision; text-rendering:geometricPrecision; image-rendering:optimizeQuality; fill-rule:evenodd; clip-rule:evenodd"
viewBox="0 0 4568 2209"
 xmlns:xlink="http://www.w3.org/1999/xlink">
 <defs>
  <style type="text/css">
   <![CDATA[
    .str1 {stroke:#00407A;stroke-width:51.4537}
    .str2 {stroke:#00407A;stroke-width:83.4903}
    .str0 {stroke:#00407A;stroke-width:83.5102;stroke-linecap:round;stroke-linejoin:round}
    .fil0 {fill:none;fill-rule:nonzero}
    .fil2 {fill:#2B2A29;fill-rule:nonzero}
    .fil1 {fill:#00407A;fill-rule:nonzero}
   ]]>
  </style>
 </defs>
 <g id="Warstwa_x0020_1">
  <metadata id="CorelCorpID_0Corel-Layer"/>
  <g id="_360302736">
   <polyline class="fil0 str0" points="257,338 42,615 52,766 479,1063 494,1228 "/>
   <path class="fil1" d="M485 128c25,78 -18,161 -95,186 -78,24 -161,-19 -185,-96 -26,-78 17,-161 95,-185 78,-25 161,17 185,95z"/>
   <path class="fil0 str1" d="M485 128c25,78 -18,161 -95,186 -78,24 -161,-19 -185,-96 -26,-78 17,-161 95,-185 78,-25 161,17 185,95z"/>
   <path class="fil1" d="M336 1991c25,78 -18,161 -95,186 -78,24 -161,-19 -186,-96 -25,-78 18,-161 96,-185 78,-25 161,17 185,95z"/>
   <path class="fil0 str1" d="M336 1991c25,78 -18,161 -95,186 -78,24 -161,-19 -186,-96 -25,-78 18,-161 96,-185 78,-25 161,17 185,95z"/>
   <polyline class="fil0 str2" points="303,1879 519,1602 508,1450 81,1154 66,989 "/>
  </g>
  <path class="fil2" d="M1019 935l29 0c71,0 128,-8 170,-24 8,12 11,26 11,39 0,11 -3,18 -10,23 -7,5 -20,7 -41,7l-279 0c-3,-8 -5,-15 -5,-22 0,-5 2,-8 4,-10 3,-2 7,-4 12,-4l26 0c2,-32 3,-115 3,-249 0,-72 -1,-124 -3,-156l-37 0c-3,-8 -5,-15 -5,-22 0,-5 2,-8 4,-10 3,-3 7,-4 12,-4l152 0c3,7 4,14 4,20 0,6 -1,10 -3,13 -3,2 -7,3 -13,3l-31 0c-2,32 -3,86 -3,160 0,131 1,210 3,236z"/>
  <path class="fil2" d="M1420 676c-23,0 -41,8 -53,25 -12,16 -19,42 -20,78l36 0c38,0 64,-1 78,-2 14,-2 22,-4 24,-8 2,-3 4,-10 4,-20 0,-23 -6,-41 -18,-54 -12,-13 -29,-19 -51,-19zm13 -47c44,0 76,10 97,31 21,20 31,54 31,101 0,21 -4,35 -11,43 -7,8 -24,13 -49,13l-154 0c0,37 8,67 23,89 14,22 41,32 78,32 35,0 67,-9 98,-27 10,10 15,21 15,32 0,16 -13,27 -39,33 -26,6 -55,9 -87,9 -60,0 -103,-12 -129,-38 -26,-25 -39,-67 -39,-127 0,-59 15,-106 44,-140 29,-34 70,-51 122,-51z"/>
  <path class="fil2" d="M1770 669c-22,0 -38,6 -49,18 -11,13 -16,35 -16,68 0,28 5,48 15,61 11,13 27,19 49,19 24,0 41,-5 52,-17 11,-11 17,-33 17,-65 0,-28 -6,-49 -17,-63 -11,-14 -28,-21 -51,-21zm-57 322c-8,8 -14,17 -18,27 -5,10 -7,21 -7,31 0,16 5,27 15,34 9,7 28,11 57,11 42,0 73,-5 95,-15 21,-10 32,-25 32,-44 0,-17 -8,-28 -24,-35 -15,-6 -65,-9 -150,-9zm176 -322c13,23 19,48 19,74 0,40 -12,72 -37,96 -26,24 -65,36 -120,36 -24,0 -40,3 -47,8 -8,5 -11,13 -11,23 0,12 5,21 14,26 10,6 46,8 108,8 61,0 100,6 118,19 18,12 27,31 27,55 0,37 -19,66 -57,88 -39,21 -98,32 -178,32 -39,0 -66,-6 -79,-16 -13,-11 -20,-26 -20,-45 0,-14 4,-28 11,-43 8,-15 18,-29 31,-43 -11,-5 -20,-11 -27,-21 -7,-9 -10,-20 -10,-34 0,-14 4,-27 13,-38 9,-12 22,-23 41,-31 -15,-6 -27,-17 -37,-33 -9,-15 -13,-36 -13,-61 0,-41 12,-74 37,-101 25,-26 63,-39 114,-39 28,0 54,4 77,13 30,-13 48,-20 54,-20 28,0 44,1 46,2 3,2 4,4 4,8 0,6 -3,14 -8,26 -6,11 -11,17 -15,17 -5,0 -21,-5 -47,-16l-8 10z"/>
  <path class="fil2" d="M2213 834c-20,-3 -41,-5 -62,-5 -27,0 -45,4 -56,13 -10,9 -16,23 -16,42 0,19 5,33 15,42 9,10 24,14 43,14 16,0 30,-3 43,-9 14,-6 22,-14 27,-25 4,-11 6,-28 6,-51l0 -21zm7 118c-19,12 -40,20 -60,26 -21,6 -41,9 -61,9 -31,0 -55,-7 -70,-22 -15,-15 -23,-37 -23,-66 0,-36 13,-63 38,-82 25,-19 65,-28 118,-28l51 0c-1,-41 -7,-70 -17,-86 -11,-16 -29,-24 -56,-24 -13,0 -27,2 -40,4 -6,14 -11,21 -12,22 -1,1 -8,3 -20,6 -12,3 -20,3 -25,-2 -5,-4 -10,-12 -15,-23 -5,-12 -7,-21 -7,-28 0,-4 1,-8 5,-11 4,-2 20,-5 47,-9 28,-4 57,-6 88,-6 41,0 72,8 91,22 20,14 30,40 30,78l0 108c0,49 2,80 6,91 5,11 12,15 22,13 3,5 4,10 4,15 0,8 -5,14 -15,18 -10,4 -23,7 -40,7 -8,0 -14,-1 -18,-3 -5,-2 -12,-12 -21,-29z"/>
  <path class="fil2" d="M2413 780c0,-99 0,-161 -1,-188 -1,-27 -3,-45 -5,-53 -3,-8 -7,-13 -12,-16 -6,-2 -13,-3 -22,-3 -3,-7 -5,-14 -5,-21 0,-8 3,-12 9,-14 6,-2 25,-3 58,-3 18,0 31,1 37,3 7,2 10,5 11,10 1,4 2,13 2,24l0 293c0,56 1,100 2,132l39 0c3,6 4,13 4,20 0,6 -1,10 -4,12 -2,3 -7,4 -14,4l-139 0c-3,-7 -5,-14 -5,-21 0,-5 2,-9 4,-11 3,-3 7,-4 13,-4l26 0c1,-32 2,-87 2,-164z"/>
  <path class="fil2" d="M910 1243l158 0c3,7 4,14 4,20 0,6 -1,10 -3,13 -3,2 -7,3 -13,3l-31 0c-2,32 -3,86 -3,160 0,131 1,213 3,245l43 0c3,7 4,14 4,20 0,6 -1,10 -3,12 -3,3 -7,4 -13,4l-157 0c-3,-8 -5,-15 -5,-22 0,-5 2,-8 4,-11 3,-2 7,-3 12,-3l32 0c2,-32 3,-115 3,-249 0,-72 -1,-124 -3,-156l-43 0c-3,-8 -5,-15 -5,-22 0,-5 2,-8 4,-11 3,-2 7,-3 12,-3z"/>
  <path class="fil2" d="M1238 1415c23,-15 46,-26 69,-34 22,-7 42,-10 60,-10 31,0 54,7 70,21 16,14 24,42 24,82 0,125 1,192 5,199 4,8 12,11 25,11 2,7 4,14 4,20 0,7 -2,11 -6,13 -4,2 -11,3 -22,3 -32,0 -52,0 -60,-1 -7,-1 -12,-3 -14,-8 -3,-4 -4,-10 -4,-20l0 -151c0,-48 -5,-79 -15,-95 -10,-16 -27,-24 -49,-24 -20,0 -36,5 -50,16 -14,11 -22,31 -22,59l0 74c0,41 1,79 3,114l39 0c2,6 4,13 4,19 0,7 -1,11 -4,13 -3,3 -8,4 -15,4l-137 0c-3,-7 -5,-14 -5,-21 0,-5 2,-9 4,-11 3,-3 7,-4 13,-4l24 0c2,-37 3,-82 3,-136 0,-69 -3,-109 -8,-120 -6,-11 -16,-16 -31,-16 -3,-7 -5,-13 -5,-20 0,-7 3,-11 8,-12 5,-2 36,-4 92,-6 2,11 2,25 0,41z"/>
  <path class="fil2" d="M1674 1684l51 0c3,6 4,13 4,19 0,7 -1,11 -4,13 -2,3 -7,4 -14,4l-152 0c-3,-7 -4,-14 -4,-21 0,-5 1,-9 4,-11 2,-3 6,-4 12,-4l26 0c2,-32 3,-70 3,-114l0 -151 -41 0c-3,-8 -4,-17 -4,-25 0,-6 1,-10 4,-13 2,-2 7,-3 13,-3l28 0c1,-59 12,-100 35,-122 23,-23 59,-34 109,-34 28,0 49,2 64,7 15,5 22,13 22,26 0,11 -5,23 -14,35 -40,-15 -71,-23 -95,-23 -20,0 -34,7 -40,21 -7,13 -10,37 -10,70l0 20 97 0c3,7 4,15 4,24 0,7 -1,11 -4,14 -2,2 -7,3 -15,3l-82 0 0 151c0,44 1,82 3,114z"/>
  <path class="fil2" d="M1988 1680c27,0 46,-10 58,-30 12,-20 18,-51 18,-93 0,-47 -6,-83 -19,-107 -12,-23 -33,-34 -63,-34 -26,0 -46,10 -57,30 -12,20 -18,51 -18,93 0,47 6,83 18,106 12,23 33,35 63,35zm-13 47c-51,0 -88,-13 -112,-40 -23,-27 -35,-67 -35,-121 0,-63 14,-111 43,-145 29,-35 70,-52 124,-52 51,0 88,13 112,40 24,27 36,67 36,122 0,62 -15,110 -44,144 -28,35 -70,52 -124,52z"/>
  <path class="fil2" d="M2205 1392c0,-7 3,-11 7,-12 5,-2 36,-4 93,-6 1,11 1,25 0,43 26,-17 51,-30 75,-36 23,-7 45,-10 65,-10 6,0 11,0 13,2 2,1 3,5 3,10 0,10 -1,21 -5,32 -3,11 -7,18 -11,22 -4,3 -12,5 -22,7 -10,1 -16,2 -18,1 -2,-1 -7,-8 -16,-20 -20,0 -37,7 -50,20 -13,13 -19,40 -19,80 0,71 1,124 3,159l49 0c3,6 4,13 4,19 0,7 -1,11 -4,13 -2,3 -7,4 -15,4l-147 0c-3,-7 -5,-14 -5,-21 0,-5 1,-9 4,-11 2,-3 7,-4 13,-4l24 0c2,-35 2,-80 2,-136 0,-69 -2,-109 -8,-120 -5,-11 -15,-16 -30,-16 -3,-7 -5,-13 -5,-20z"/>
  <path class="fil2" d="M2818 1496c0,98 1,161 3,188l37 0c3,6 4,13 4,19 0,7 -1,11 -4,13 -2,3 -7,4 -15,4l-123 0c-3,-7 -4,-14 -4,-21 0,-5 1,-9 4,-11 2,-3 6,-4 12,-4l12 0c2,-34 3,-82 3,-144 0,-48 -5,-79 -15,-95 -11,-16 -27,-24 -50,-24 -14,0 -29,5 -43,16 -14,11 -21,31 -21,59l0 74c0,41 1,79 3,114l28 0c3,6 4,13 4,19 0,7 -1,11 -4,13 -2,3 -7,4 -15,4l-126 0c-3,-7 -5,-14 -5,-21 0,-5 1,-9 4,-11 2,-3 7,-4 13,-4l24 0c2,-37 2,-82 2,-136 0,-69 -2,-109 -8,-120 -5,-11 -15,-16 -30,-16 -3,-7 -5,-13 -5,-20 0,-7 3,-11 8,-12 4,-2 35,-4 92,-6 2,11 2,25 0,41 23,-15 45,-26 67,-34 21,-7 41,-10 59,-10 23,0 41,4 53,12 12,8 21,18 25,30 21,-14 42,-25 63,-32 21,-7 41,-10 58,-10 29,0 51,7 67,21 16,14 23,42 23,82 0,125 2,192 6,199 4,8 12,11 25,11 2,7 4,14 4,20 0,7 -2,11 -6,13 -4,2 -12,3 -22,3 -33,0 -52,0 -60,-1 -7,-1 -12,-3 -14,-8 -3,-4 -4,-10 -4,-20l0 -151c0,-48 -5,-79 -15,-95 -10,-16 -27,-24 -49,-24 -15,0 -29,5 -44,16 -14,11 -21,31 -21,59z"/>
  <path class="fil2" d="M3319 1574c-20,-4 -41,-5 -62,-5 -26,0 -45,4 -56,13 -10,9 -15,23 -15,42 0,18 4,33 14,42 9,9 24,14 44,14 15,0 29,-3 42,-9 14,-6 22,-14 27,-25 4,-11 6,-28 6,-52l0 -20zm7 118c-19,11 -39,20 -60,26 -21,6 -41,9 -61,9 -31,0 -55,-7 -70,-22 -15,-15 -23,-37 -23,-66 0,-36 13,-63 38,-82 26,-19 65,-28 118,-28l51 0c-1,-41 -7,-70 -18,-86 -10,-16 -28,-24 -54,-24 -14,0 -28,2 -41,4 -6,14 -10,21 -12,22 -1,1 -8,3 -20,6 -12,3 -20,3 -25,-2 -5,-4 -10,-12 -15,-23 -5,-12 -7,-21 -7,-28 0,-4 2,-8 5,-11 4,-2 20,-5 48,-9 27,-4 56,-6 87,-6 41,0 72,8 91,22 20,14 30,40 30,78l0 108c0,49 2,80 6,91 5,11 12,15 22,13 3,5 4,10 4,15 0,8 -5,14 -15,18 -10,4 -23,7 -40,7 -8,0 -14,-1 -18,-4 -5,-2 -12,-11 -21,-28z"/>
  <path class="fil2" d="M3495 1378l24 0 28 -100c10,3 18,7 25,11 7,4 12,9 15,15 3,6 5,26 5,59l0 15 115 0c3,7 4,15 4,24 0,7 -1,11 -4,14 -2,2 -7,3 -15,3l-100 0 0 165c0,39 4,65 11,78 7,12 18,19 32,20 15,0 33,-5 54,-15 5,8 8,16 8,25 0,13 -7,21 -21,25 -13,4 -35,7 -64,7 -32,0 -55,-7 -70,-20 -14,-13 -22,-37 -22,-73l0 -82c0,-45 -1,-88 -3,-130l-35 0c-2,-8 -4,-17 -4,-25 0,-6 1,-10 4,-13 3,-2 7,-3 13,-3z"/>
  <path class="fil2" d="M3827 1314c-16,0 -27,-3 -34,-9 -7,-6 -11,-15 -11,-27 0,-13 5,-23 14,-31 9,-8 22,-12 39,-12 16,0 27,4 34,10 8,7 11,16 11,27 0,13 -4,23 -13,31 -9,7 -22,11 -40,11zm49 370l37 0c3,6 5,13 5,19 0,7 -2,11 -4,13 -3,3 -8,4 -15,4l-138 0c-2,-7 -4,-14 -4,-21 0,-5 2,-9 4,-11 2,-3 7,-4 13,-4l26 0c1,-32 2,-70 2,-114 0,-53 0,-89 -1,-106 -1,-18 -3,-31 -6,-37 -3,-7 -7,-11 -13,-13 -5,-1 -12,-2 -20,-2 -3,-5 -5,-11 -5,-17 0,-10 5,-16 14,-18 9,-2 27,-3 53,-3 18,0 31,1 37,3 7,1 10,5 11,10 1,4 2,12 2,24l0 159c0,44 1,82 2,114z"/>
  <path class="fil2" d="M4132 1727c-57,0 -98,-12 -122,-36 -24,-24 -36,-66 -36,-124 0,-64 15,-113 45,-147 31,-34 77,-51 140,-51 30,0 52,3 66,8 14,6 21,15 21,26 0,14 -5,27 -15,40 -35,-18 -64,-27 -89,-27 -32,0 -55,10 -69,31 -14,20 -20,53 -20,97 0,45 6,79 19,102 14,23 38,34 73,34 27,0 58,-9 93,-27 8,11 12,22 12,33 0,13 -12,23 -36,30 -24,8 -52,11 -82,11z"/>
  <path class="fil2" d="M4460 1369c31,0 56,3 73,9 19,6 28,15 28,29 0,13 -6,27 -18,40 -46,-21 -82,-31 -108,-31 -18,0 -32,3 -41,10 -9,7 -13,16 -13,29 0,13 5,24 15,33 10,9 31,19 62,30 40,14 68,29 85,44 15,14 24,32 25,55l0 14c-2,30 -14,53 -38,69 -26,18 -62,27 -110,27 -36,0 -63,-3 -82,-8 -19,-5 -29,-16 -29,-32 0,-12 5,-23 14,-35 40,19 77,28 111,28 21,0 37,-3 48,-10 10,-7 16,-19 16,-34 0,-16 -8,-30 -24,-39 -16,-10 -41,-21 -75,-35 -34,-12 -57,-26 -70,-40 -13,-14 -19,-32 -19,-54 0,-30 13,-54 38,-72 26,-18 63,-27 112,-27z"/>
 </g>
</svg>
